<svg width="35" height="35" viewBox="0 0 35 35" fill="none" xmlns="http://www.w3.org/2000/svg">
<path fill-rule="evenodd" clip-rule="evenodd" d="M14.2915 1.59227C14.2918 1.26049 14.1886 0.936931 13.9962 0.666856C13.8039 0.396782 13.5321 0.193712 13.2189 0.0860654C12.9056 -0.0215814 12.5667 -0.0284182 12.2494 0.0665116C11.9321 0.161441 11.6523 0.353388 11.4493 0.615488L0.334545 14.9331C0.11772 15.2124 0 15.5561 0 15.9099C0 16.2637 0.11772 16.6074 0.334545 16.8867L11.4493 31.2043C11.6523 31.4664 11.9321 31.6583 12.2494 31.7532C12.5667 31.8482 12.9056 31.8413 13.2189 31.7337C13.5321 31.626 13.8039 31.423 13.9962 31.1529C14.1886 30.8828 14.2918 30.5593 14.2915 30.2275V23.88C22.8324 24.0582 26.9353 25.6824 28.9963 27.4483C30.9557 29.1266 31.3146 31.1009 31.6877 33.169L31.7846 33.7019C31.8558 34.0832 32.0637 34.4253 32.3691 34.6638C32.6745 34.9024 33.0564 35.0208 33.4429 34.997C33.8294 34.9731 34.1938 34.8086 34.4677 34.5344C34.7416 34.2601 34.906 33.895 34.93 33.5078C35.2015 29.1362 34.7935 22.8014 31.7115 17.5023C28.7201 12.3591 23.3326 8.40426 14.2915 7.99064V1.59227Z" fill="#2B73B9"/>
</svg>
